<?xml version="1.0" encoding="utf-8" ?>
<!DOCTYPE svg PUBLIC "-//W3C//DTD SVG 1.1//EN" "http://www.w3.org/Graphics/SVG/1.1/DTD/svg11.dtd">
<svg height="284" version="1.1" width="444" xmlns="http://www.w3.org/2000/svg">
<rect fill="#00ffff" height="256" rx="16" ry="16" stroke="#00ffff" stroke-width="1" width="416" x="14" y="14"/>
<rect fill="#ffffff" height="256" rx="16" ry="16" stroke="#ffffff" stroke-width="1" width="416" x="14" y="14"/>
<rect fill="#ffffff" height="256" rx="16" ry="16" stroke="#000000" stroke-width="1" width="416" x="14" y="14"/>
<text font-family="Lucida Grande" font-size="13" x="207" y="30">
oven</text>
<line fill="#000000" stroke="#000000" stroke-width="1" x1="14" x2="429" y1="37" y2="37"/>
<rect fill="#00ffff" height="96" rx="16" ry="16" stroke="#00ffff" stroke-width="1" width="120" x="278" y="110"/>
<rect fill="#ffffff" height="96" rx="16" ry="16" stroke="#ffffff" stroke-width="1" width="120" x="278" y="110"/>
<rect fill="#ffffff" height="96" rx="16" ry="16" stroke="#000000" stroke-width="1" width="120" x="278" y="110"/>
<text font-family="Lucida Grande" font-size="13" x="307" y="126">
doorOpen</text>
<line fill="#000000" stroke="#000000" stroke-width="1" x1="278" x2="397" y1="133" y2="133"/>
<ellipse cx="30" cy="54" fill="#000000" rx="8.0" ry="8.0" stroke="#000000" stroke-width="1"/>
<rect fill="#00ffff" height="168" rx="16" ry="16" stroke="#00ffff" stroke-width="1" width="152" x="46" y="78"/>
<rect fill="#ffffff" height="168" rx="16" ry="16" stroke="#ffffff" stroke-width="1" width="152" x="46" y="78"/>
<rect fill="#ffffff" height="168" rx="16" ry="16" stroke="#000000" stroke-width="1" width="152" x="46" y="78"/>
<text font-family="Lucida Grande" font-size="13" x="98" y="94">
heating</text>
<line fill="#000000" stroke="#000000" stroke-width="1" x1="46" x2="197" y1="101" y2="101"/>
<polyline fill="none" points="34,60 46,78" stroke="#000000" stroke-width="1"/>
<line fill="#000000" stroke="#000000" stroke-width="1" x1="33" x2="46" y1="71" y2="78"/>
<line fill="#000000" stroke="#000000" stroke-width="1" x1="45" x2="46" y1="64" y2="78"/>
<rect fill="#00ffff" height="46" rx="16" ry="16" stroke="#00ffff" stroke-width="1" width="70" x="86" y="126"/>
<rect fill="#ffffff" height="46" rx="16" ry="16" stroke="#ffffff" stroke-width="1" width="70" x="86" y="126"/>
<rect fill="#ffffff" height="46" rx="16" ry="16" stroke="#000000" stroke-width="1" width="70" x="86" y="126"/>
<text font-family="Lucida Grande" font-size="13" x="95" y="142">
toasting</text>
<line fill="#000000" stroke="#000000" stroke-width="1" x1="86" x2="155" y1="149" y2="149"/>
<rect fill="#00ffff" height="46" rx="16" ry="16" stroke="#00ffff" stroke-width="1" width="70" x="86" y="182"/>
<rect fill="#ffffff" height="46" rx="16" ry="16" stroke="#ffffff" stroke-width="1" width="70" x="86" y="182"/>
<rect fill="#ffffff" height="46" rx="16" ry="16" stroke="#000000" stroke-width="1" width="70" x="86" y="182"/>
<text font-family="Lucida Grande" font-size="13" x="99" y="198">
baking</text>
<line fill="#000000" stroke="#000000" stroke-width="1" x1="86" x2="155" y1="205" y2="205"/>
<ellipse cx="62" cy="118" fill="#000000" rx="8.0" ry="8.0" stroke="#000000" stroke-width="1"/>
<polyline fill="none" points="69,121 86,126" stroke="#000000" stroke-width="1"/>
<line fill="#000000" stroke="#000000" stroke-width="1" x1="72" x2="86" y1="129" y2="126"/>
<line fill="#000000" stroke="#000000" stroke-width="1" x1="76" x2="86" y1="115" y2="126"/>
<polyline fill="none" points="198,162 278,162" stroke="#000000" stroke-width="1"/>
<line fill="#000000" stroke="#000000" stroke-width="1" x1="266" x2="278" y1="169" y2="162"/>
<line fill="#000000" stroke="#000000" stroke-width="1" x1="266" x2="278" y1="155" y2="162"/>
<text font-family="Lucida Grande" font-size="13" x="199" y="157">
OPEN_DOOR</text>
</svg>
